<svg version="1.1" xmlns="http://www.w3.org/2000/svg" viewBox="0 0 73 71" width="73" height="71">
<path d="M0 0 C2.23046875 -0.00390625 2.23046875 -0.00390625 5 1 C6.83422755 3.49673729 8.04464876 6.2453201 9.3125 9.0625 C9.67150391 9.82111328 10.03050781 10.57972656 10.40039062 11.36132812 C11.28335948 13.2332221 12.14387587 15.11567717 13 17 C13.99 11.72 14.98 6.44 16 1 C17.32 1.33 18.64 1.66 20 2 C19.40984815 7.50808397 18.43336231 12.64878069 17 18 C19.7790214 15.37536868 21.98818512 13.01919919 24 9.75 C26 7 26 7 28.75 6.125 C29.4925 6.08375 30.235 6.0425 31 6 C31.7109375 8.2109375 31.7109375 8.2109375 32 11 C30.6015625 13.3515625 30.6015625 13.3515625 28.625 15.625 C25.74841434 18.97718523 25.74841434 18.97718523 24 23 C25.175625 22.67 26.35125 22.34 27.5625 22 C31.5011676 21.0030467 34.95139129 20.83130797 39 21 C38.3046875 22.921875 38.3046875 22.921875 37 25 C34.7578125 25.828125 34.7578125 25.828125 32.125 26.25 C31.26132812 26.39953125 30.39765625 26.5490625 29.5078125 26.703125 C27 27 27 27 23 27 C23 27.66 23 28.32 23 29 C27.95 29 32.9 29 38 29 C38.495 30.98 38.495 30.98 39 33 C34.61078349 34.29477815 31.94228883 33.6054454 27.6875 32.0625 C26.61886719 31.68222656 25.55023438 31.30195312 24.44921875 30.91015625 C23.64097656 30.60980469 22.83273438 30.30945313 22 30 C22.66 30.61875 23.32 31.2375 24 31.875 C26 34 26 34 26 36 C26.5775 36.2475 27.155 36.495 27.75 36.75 C30.32939979 38.18299988 32.06121592 39.78424676 34 42 C34 42.66 34 43.32 34 44 C29.40693504 42.5140084 26.56430755 40.14985318 23 37 C23.66 38.0725 24.32 39.145 25 40.25 C26.88295807 43.30980686 27 44.1335864 27 48 C25.234375 47.84765625 25.234375 47.84765625 23 47 C21.078125 44.49609375 21.078125 44.49609375 19.25 41.4375 C18.63640625 40.42558594 18.0228125 39.41367187 17.390625 38.37109375 C16.70226563 37.19740234 16.70226563 37.19740234 16 36 C15.95101562 36.81984375 15.90203125 37.6396875 15.8515625 38.484375 C15.77679688 39.56203125 15.70203125 40.6396875 15.625 41.75 C15.55539063 42.81734375 15.48578125 43.8846875 15.4140625 44.984375 C15.0271777 47.80206432 14.44313834 49.5830366 13 52 C11.515 51.505 11.515 51.505 10 51 C10.66 45.72 11.32 40.44 12 35 C11.31292969 35.9384375 10.62585938 36.876875 9.91796875 37.84375 C9.00831427 39.06287456 8.09813047 40.28160429 7.1875 41.5 C6.50977539 42.43005859 6.50977539 42.43005859 5.81835938 43.37890625 C4.61664854 44.97533962 3.31346367 46.49417079 2 48 C1.01 48 0.02 48 -1 48 C0.34929464 44.16336928 2.07751025 41.34827431 4.625 38.1875 C5.25664062 37.39730469 5.88828125 36.60710938 6.5390625 35.79296875 C7.02117188 35.20128906 7.50328125 34.60960937 8 34 C4.42403469 35.71198339 1.19995767 37.78659241 -2.09765625 39.9765625 C-4 41 -4 41 -7 41 C-6.64537771 38.22312716 -6.24613432 37.20868995 -4.07421875 35.3671875 C-3.28660156 34.87476563 -2.49898437 34.38234375 -1.6875 33.875 C-0.90761719 33.37742188 -0.12773437 32.87984375 0.67578125 32.3671875 C2.74879023 31.14777045 4.83311354 30.04129555 7 29 C5.97519531 28.95101562 4.95039063 28.90203125 3.89453125 28.8515625 C2.5338294 28.77648929 1.17315356 28.70094345 -0.1875 28.625 C-1.19780273 28.57859375 -1.19780273 28.57859375 -2.22851562 28.53125 C-6.19678975 28.29896078 -9.40729879 27.71612524 -13 26 C-13 25.67 -13 25.34 -13 25 C-6.4 25 0.2 25 7 25 C2.11678161 21.87611034 2.11678161 21.87611034 -2.78295898 18.77832031 C-3.38954346 18.38225586 -3.99612793 17.98619141 -4.62109375 17.578125 C-5.2442749 17.18012695 -5.86745605 16.78212891 -6.50952148 16.37207031 C-8.34015423 14.68686867 -8.61983083 13.42048538 -9 11 C-7.359375 10.25390625 -7.359375 10.25390625 -5 10 C-2.203125 11.65234375 -2.203125 11.65234375 0.75 13.9375 C1.73484375 14.68902344 2.7196875 15.44054688 3.734375 16.21484375 C4.48203125 16.80394531 5.2296875 17.39304687 6 18 C5.57847656 17.26394531 5.15695313 16.52789063 4.72265625 15.76953125 C4.17480469 14.79371094 3.62695312 13.81789063 3.0625 12.8125 C2.51722656 11.84957031 1.97195312 10.88664062 1.41015625 9.89453125 C0.08224095 7.16881038 -0.67327978 5.0027144 -1 2 C-0.67 1.34 -0.34 0.68 0 0 Z " fill="#C68167" transform="translate(24,7)"/>
<path d="M0 0 C0.65355469 0.15339844 1.30710937 0.30679688 1.98046875 0.46484375 C5.75492159 1.13379594 9.48905996 1.35407297 13.3125 1.5625 C14.05306641 1.60568359 14.79363281 1.64886719 15.55664062 1.69335938 C17.37091464 1.79870432 19.1854355 1.89978316 21 2 C18.59310197 4.72675159 16.07528977 6.11966596 12.8125 7.6875 C11.46091797 8.34298828 11.46091797 8.34298828 10.08203125 9.01171875 C9.05142578 9.50091797 9.05142578 9.50091797 8 10 C8 9.34 8 8.68 8 8 C8.66 8 9.32 8 10 8 C7.27521226 4.63408573 3.93143208 3.55773724 0 2 C0 1.34 0 0.68 0 0 Z " fill="#FDF2EC" transform="translate(11,33)"/>
<path d="M0 0 C5.94 1.485 5.94 1.485 12 3 C12.66666667 6.33333333 13.33333333 9.66666667 14 13 C8.5231201 10.68285851 3.93566987 6.38978562 0 2 C0 1.34 0 0.68 0 0 Z " fill="#FCF5EC" transform="translate(46,37)"/>
<path d="M0 0 C2.75006608 -0.0270203 5.49986546 -0.04684883 8.25 -0.0625 C9.02730469 -0.07087891 9.80460937 -0.07925781 10.60546875 -0.08789062 C11.73662109 -0.09272461 11.73662109 -0.09272461 12.890625 -0.09765625 C13.92751465 -0.10551147 13.92751465 -0.10551147 14.98535156 -0.11352539 C17.09973898 0.00562029 18.96641515 0.42381763 21 1 C21 1.66 21 2.32 21 3 C18.43721301 3.05420701 15.87558517 3.09377007 13.3125 3.125 C12.59126953 3.14175781 11.87003906 3.15851562 11.12695312 3.17578125 C6.95123219 3.21391569 3.7505862 2.8789919 0 1 C0 0.67 0 0.34 0 0 Z " fill="#BC846F" transform="translate(11,32)"/>
<path d="M0 0 C1.32 0.33 2.64 0.66 4 1 C3.48041715 5.37934119 2.94324258 9.68803391 2 14 C0.66666667 14 -0.66666667 14 -2 14 C-1.85866501 12.22880197 -1.71176792 10.45804713 -1.5625 8.6875 C-1.48128906 7.70136719 -1.40007813 6.71523437 -1.31640625 5.69921875 C-1 3 -1 3 0 0 Z " fill="#C28870" transform="translate(40,8)"/>
<path d="M0 0 C3.22269618 3.79817765 5.74520378 7.57391854 8 12 C7.67 12.66 7.34 13.32 7 14 C6.24074219 13.44570313 5.48148438 12.89140625 4.69921875 12.3203125 C3.20841797 11.23363281 3.20841797 11.23363281 1.6875 10.125 C0.70136719 9.40570313 -0.28476562 8.68640625 -1.30078125 7.9453125 C-3.17523115 6.5944065 -5.07752993 5.28164671 -7 4 C-1.25 4.875 -1.25 4.875 1 6 C0.67 4.02 0.34 2.04 0 0 Z " fill="#F9E8DA" transform="translate(23,12)"/>
<path d="M0 0 C1.32 0.66 2.64 1.32 4 2 C4 2.66 4 3.32 4 4 C4.5775 4.2475 5.155 4.495 5.75 4.75 C8.32939979 6.18299988 10.06121592 7.78424676 12 10 C12 10.66 12 11.32 12 12 C8.72474189 10.94035767 6.38618531 9.60721355 3.8125 7.375 C1.35884646 4.78493973 1.35884646 4.78493973 -1 5 C-0.67 3.35 -0.34 1.7 0 0 Z " fill="#C18B78" transform="translate(46,39)"/>
<path d="M0 0 C0.33 0 0.66 0 1 0 C1.33 1.98 1.66 3.96 2 6 C2.99 6.33 3.98 6.66 5 7 C4.04956626 8.33897583 3.08940853 9.67105427 2.125 11 C1.59132813 11.7425 1.05765625 12.485 0.5078125 13.25 C0.01023438 13.8275 -0.48734375 14.405 -1 15 C-1.66 15 -2.32 15 -3 15 C-2.68917128 13.24970238 -2.37626821 11.49977306 -2.0625 9.75 C-1.88847656 8.77546875 -1.71445312 7.8009375 -1.53515625 6.796875 C-1.09620271 4.50278205 -0.59651408 2.25708029 0 0 Z " fill="#FDF0E4" transform="translate(44,10)"/>
<path d="M0 0 C1.00698122 4.02792488 0.86376936 5.79078668 0.0625 9.75 C-0.13214844 10.73484375 -0.32679687 11.7196875 -0.52734375 12.734375 C-0.68332031 13.48203125 -0.83929688 14.2296875 -1 15 C-3 11.25 -3 11.25 -3 9 C-3.66 9 -4.32 9 -5 9 C-5.33 9.99 -5.66 10.98 -6 12 C-6.66 11.67 -7.32 11.34 -8 11 C-5.36 7.37 -2.72 3.74 0 0 Z " fill="#F9E5DB" transform="translate(36,40)"/>
<path d="M0 0 C2.2477975 2.05233685 3.0022242 3.00667261 4 6 C3.34 6.66 2.68 7.32 2 8 C1.814375 9.670625 1.814375 9.670625 1.625 11.375 C0.93711802 15.3647155 0.08354274 16.51327198 -3 19 C-2.68289062 18.15179688 -2.36578125 17.30359375 -2.0390625 16.4296875 C-0.97128768 12.90522775 -0.59958921 9.79329043 -0.375 6.125 C-0.30023438 4.97257812 -0.22546875 3.82015625 -0.1484375 2.6328125 C-0.09945312 1.76398437 -0.05046875 0.89515625 0 0 Z " fill="#FAEEE1" transform="translate(39,42)"/>
<path d="M0 0 C4 0 4 0 6.25 1.75 C8 4 8 4 8 8 C6.25 7.9375 6.25 7.9375 4 7 C2.40498463 4.75835678 1.25456982 2.46433357 0 0 Z " fill="#C0856E" transform="translate(43,47)"/>
<path d="M0 0 C0.66 0.33 1.32 0.66 2 1 C-0.31 3.64 -2.62 6.28 -5 9 C-5.33 8.34 -5.66 7.68 -6 7 C-7.98 7.66 -9.96 8.32 -12 9 C-8.63378119 5.21300384 -4.58358196 2.1727369 0 0 Z " fill="#F9E0D2" transform="translate(32,39)"/>
<path d="M0 0 C0.65355469 0.15339844 1.30710937 0.30679688 1.98046875 0.46484375 C5.75492159 1.13379594 9.48905996 1.35407297 13.3125 1.5625 C14.05306641 1.60568359 14.79363281 1.64886719 15.55664062 1.69335938 C17.37091464 1.79870432 19.1854355 1.89978316 21 2 C19.625 3.5 19.625 3.5 18 5 C17.34 5 16.68 5 16 5 C16 4.34 16 3.68 16 3 C14.2365625 3.2784375 14.2365625 3.2784375 12.4375 3.5625 C8.38731406 4.08230996 5.00125547 3.7502354 1 3 C0.67 2.01 0.34 1.02 0 0 Z " fill="#F9E2D4" transform="translate(11,33)"/>
<path d="M0 0 C3.28212246 0.43761633 4.84832931 1.52557871 7 4 C6.01 4 5.02 4 4 4 C4.33 4.99 4.66 5.98 5 7 C2.5625 6.25 2.5625 6.25 0 5 C-0.875 2.9375 -0.875 2.9375 -1 1 C-0.67 0.67 -0.34 0.34 0 0 Z " fill="#C18670" transform="translate(16,17)"/>
<path d="M0 0 C0.33 0.66 0.66 1.32 1 2 C0.01 3.32 -0.98 4.64 -2 6 C-1.67 6.66 -1.34 7.32 -1 8 C-2.3125 10 -2.3125 10 -4 12 C-4.99 12 -5.98 12 -7 12 C-5.44298069 7.32894208 -2.91552627 3.91294315 0 0 Z " fill="#C38D78" transform="translate(30,43)"/>
<path d="M0 0 C1.98 1.32 3.96 2.64 6 4 C1.85340627 5.19799449 -1.99369047 4.8896192 -6.25 4.5625 C-6.99507812 4.51029297 -7.74015625 4.45808594 -8.5078125 4.40429688 C-10.33894861 4.2751783 -12.16953813 4.13834886 -14 4 C-14 3.67 -14 3.34 -14 3 C-9.38 2.67 -4.76 2.34 0 2 C0 1.34 0 0.68 0 0 Z " fill="#EED3C4" transform="translate(26,28)"/>
<path d="M0 0 C2.4294516 3.6441774 2.16179575 5.71241272 2 10 C1.01 10.495 1.01 10.495 0 11 C-0.66 11.99 -1.32 12.98 -2 14 C-1.85795259 12.41632253 -1.71119847 10.83306682 -1.5625 9.25 C-1.48128906 8.36828125 -1.40007813 7.4865625 -1.31640625 6.578125 C-1.03761535 4.30649548 -0.61209423 2.20148177 0 0 Z " fill="#BD826D" transform="translate(37,40)"/>
<path d="M0 0 C5.875 3.75 5.875 3.75 7 6 C6.71887936 8.00800456 6.38932033 10.01014051 6 12 C5.7525 11.46375 5.505 10.9275 5.25 10.375 C3.95818042 7.81253405 3.95818042 7.81253405 1.875 4.875 C0 2 0 2 0 0 Z " fill="#F4D7C6" transform="translate(46,43)"/>
<path d="M0 0 C2.475 0.495 2.475 0.495 5 1 C5 3.64 5 6.28 5 9 C1.9083091 6.47043472 1.09068668 3.77545388 0 0 Z " fill="#FCEEE4" transform="translate(33,17)"/>
<path d="M0 0 C1.9375 0.375 1.9375 0.375 4 1 C4.33 1.66 4.66 2.32 5 3 C2.525 4.485 2.525 4.485 0 6 C0 4.02 0 2.04 0 0 Z M-3 6 C-2.01 6.33 -1.02 6.66 0 7 C-0.99 7.33 -1.98 7.66 -3 8 C-3 7.34 -3 6.68 -3 6 Z " fill="#FAEDE5" transform="translate(52,49)"/>
<path d="M0 0 C4.95 0.99 4.95 0.99 10 2 C10 2.33 10 2.66 10 3 C8.35 3 6.7 3 5 3 C4.67 3.99 4.34 4.98 4 6 C2.62437146 4.71034824 1.29233607 3.37310707 0 2 C0 1.34 0 0.68 0 0 Z " fill="#F2D3C6" transform="translate(46,37)"/>
<path d="M0 0 C0.66 0.66 1.32 1.32 2 2 C-1.3 2 -4.6 2 -8 2 C-8 1.34 -8 0.68 -8 0 C-4.96083486 -0.97687451 -3.01586454 -1.105817 0 0 Z " fill="#EFCEBF" transform="translate(55,34)"/>
<path d="M0 0 C1.00000429 4.00001715 0.80688405 6.05523353 0 10 C-0.66 9.01 -1.32 8.02 -2 7 C-2.99 7 -3.98 7 -5 7 C-3.35 4.69 -1.7 2.38 0 0 Z " fill="#F4D4C5" transform="translate(36,40)"/>
<path d="M0 0 C-0.66 1.32 -1.32 2.64 -2 4 C-2.66 3.67 -3.32 3.34 -4 3 C-3.67 2.34 -3.34 1.68 -3 1 C-7.455 1.495 -7.455 1.495 -12 2 C-12 1.67 -12 1.34 -12 1 C-7.9472484 0.01751476 -4.16138263 -0.08159574 0 0 Z " fill="#C18C7B" transform="translate(63,28)"/>
<path d="M0 0 C0.66 0.33 1.32 0.66 2 1 C2 1.66 2 2.32 2 3 C2.66 3.33 3.32 3.66 4 4 C2.625 6 2.625 6 1 8 C0.34 8 -0.32 8 -1 8 C-0.67 5.36 -0.34 2.72 0 0 Z " fill="#F3D7C6" transform="translate(42,17)"/>
<path d="M0 0 C2.2477975 2.05233685 3.0022242 3.00667261 4 6 C2.68 6.33 1.36 6.66 0 7 C0 4.69 0 2.38 0 0 Z " fill="#FCE2D2" transform="translate(39,42)"/>
<path d="M0 0 C2.475 0.495 2.475 0.495 5 1 C5 1.99 5 2.98 5 4 C3.35 4.33 1.7 4.66 0 5 C0.66 3.68 1.32 2.36 2 1 C1.34 0.67 0.68 0.34 0 0 Z " fill="#C5917E" transform="translate(58,36)"/>
<path d="M0 0 C0.33 0 0.66 0 1 0 C2.23076923 6.4 2.23076923 6.4 1.0625 9.4375 C0.711875 9.953125 0.36125 10.46875 0 11 C-0.33 11 -0.66 11 -1 11 C-0.67 7.37 -0.34 3.74 0 0 Z " fill="#C68E79" transform="translate(39,11)"/>
<path d="M0 0 C2.15377564 2.62198774 3.40072174 4.64404172 4 8 C2.68 8 1.36 8 0 8 C0 5.36 0 2.72 0 0 Z " fill="#C58670" transform="translate(28,8)"/>
</svg>
